<?xml version="1.0" standalone="no"?>
<!DOCTYPE svg PUBLIC "-//W3C//DTD SVG 20010904//EN"
 "http://www.w3.org/TR/2001/REC-SVG-20010904/DTD/svg10.dtd">
<svg version="1.0" xmlns="http://www.w3.org/2000/svg"
 width="150.000000pt" height="150.000000pt" viewBox="0 0 150.000000 150.000000"
 preserveAspectRatio="xMidYMid meet">

<g transform="translate(0.000000,150.000000) scale(0.100000,-0.100000)"
fill="#000000" stroke="none">
<path d="M456 921 c-42 -125 -76 -233 -76 -240 0 -28 20 -6 35 39 l17 50 113
0 113 0 17 -50 c17 -50 43 -72 31 -25 -23 90 -36 99 -161 105 l-102 5 52 154
51 154 38 -119 c39 -123 56 -157 56 -114 0 42 -80 270 -95 270 -9 0 -40 -80
-89 -229z"/>
<path d="M858 1134 c-36 -19 -48 -43 -48 -96 0 -57 28 -84 135 -133 103 -46
135 -77 135 -126 0 -60 -42 -90 -124 -91 -81 -1 -136 36 -136 91 0 12 -4 21
-10 21 -20 0 -10 -59 15 -89 34 -39 84 -55 153 -48 66 7 102 31 121 80 28 76
-6 121 -144 187 -107 51 -125 68 -125 118 0 46 39 75 108 80 73 5 122 -24 136
-81 12 -46 26 -48 26 -4 0 39 -21 72 -60 92 -37 19 -146 19 -182 -1z"/>
<path d="M331 521 c-11 -20 -9 -69 3 -90 12 -18 36 -12 45 12 10 27 5 37 -17
36 -11 0 -12 -3 -4 -6 17 -7 15 -33 -3 -33 -11 0 -15 11 -15 40 0 28 4 40 14
40 8 0 17 -6 20 -12 3 -7 5 -4 3 7 -3 27 -33 31 -46 6z"/>
<path d="M530 480 c0 -57 1 -60 25 -60 14 0 25 5 25 10 0 6 -7 10 -15 10 -18
0 -20 26 -2 34 10 5 10 7 0 12 -18 8 -16 34 2 34 8 0 15 5 15 10 0 6 -11 10
-25 10 -24 0 -25 -3 -25 -60z"/>
<path d="M732 528 c-18 -18 -15 -36 8 -50 11 -7 20 -18 20 -25 0 -17 -17 -17
-23 0 -2 6 -7 9 -11 6 -14 -13 7 -40 28 -37 29 4 33 43 7 60 -12 7 -21 18 -21
25 0 17 17 17 23 1 2 -7 8 -10 12 -6 8 8 -12 38 -24 38 -4 0 -12 -5 -19 -12z"/>
<path d="M927 533 c-13 -12 -7 -40 13 -58 11 -10 20 -22 20 -27 0 -13 -28 -9
-33 5 -3 7 -6 5 -6 -6 -1 -25 27 -33 47 -14 15 15 14 19 -11 45 -15 15 -27 31
-27 35 0 12 28 8 33 -5 4 -8 6 -7 6 3 1 9 -6 20 -15 23 -19 7 -19 7 -27 -1z"/>
<path d="M1120 521 c-14 -28 -13 -64 4 -87 12 -15 18 -17 33 -8 26 16 30 84 7
101 -24 18 -31 16 -44 -6z m40 -41 c0 -29 -4 -40 -15 -40 -11 0 -15 11 -15 40
0 29 4 40 15 40 11 0 15 -11 15 -40z"/>
</g>
</svg>
